<svg width="48" height="51" viewBox="0 0 48 51" fill="none" xmlns="http://www.w3.org/2000/svg">
<circle cx="24" cy="27" r="24" fill="#0C4A6E"/>
<circle cx="24" cy="27" r="21" fill="#082F49"/>
<g filter="url(#filter0_d_2_14)">
<path d="M32.327 37.4C31.9804 36.9467 31.687 36.4533 31.447 35.92C31.207 35.36 30.9537 34.6933 30.687 33.92C30.6337 33.7867 30.4737 33.3867 30.207 32.72C29.967 32.0533 29.687 31.48 29.367 31C27.687 31.24 26.3137 31.36 25.247 31.36C24.6604 31.36 24.007 31.3467 23.287 31.32C22.5937 31.2667 22.0737 31.24 21.727 31.24C20.3937 31.1333 19.327 31.08 18.527 31.08C18.207 31.5067 17.927 31.96 17.687 32.44C17.4737 32.92 17.1937 33.64 16.847 34.6C16.367 35.9867 15.9537 36.9733 15.607 37.56C15.367 37.96 14.9004 38.16 14.207 38.16C13.6204 38.16 13.0737 38.04 12.567 37.8C12.087 37.5333 11.847 37.1733 11.847 36.72C12.0604 35.7067 12.3937 34.64 12.847 33.52C13.327 32.3733 14.007 30.8533 14.887 28.96L16.487 25.04C17.367 22.8 18.167 20.88 18.887 19.28C19.6337 17.68 20.607 15.7867 21.807 13.6C21.967 13.28 22.2337 13.0133 22.607 12.8C22.9804 12.56 23.3937 12.44 23.847 12.44C24.3537 12.44 24.7137 12.48 24.927 12.56C25.167 12.6133 25.3537 12.72 25.487 12.88C25.6204 13.0133 25.8204 13.3067 26.087 13.76C26.9937 15.1733 27.767 16.6267 28.407 18.12C29.0737 19.6133 29.9137 21.68 30.927 24.32L31.767 26.44C32.5137 28.36 33.1537 29.9733 33.687 31.28C34.247 32.56 34.8604 33.7333 35.527 34.8C35.9537 35.4933 36.167 35.9733 36.167 36.24C36.167 36.88 35.967 37.3733 35.567 37.72C35.1937 38.04 34.7004 38.2 34.087 38.2C33.3137 38.2 32.727 37.9333 32.327 37.4ZM28.207 27.72C27.7804 26.8133 27.167 25.24 26.367 23C25.5404 20.6 24.7137 18.6933 23.887 17.28C23.3804 18.56 22.6337 20.2133 21.647 22.24C20.9804 23.4933 20.2204 25.3067 19.367 27.68C21.0737 27.8933 22.9137 28 24.887 28C26.3004 28 27.407 27.9067 28.207 27.72Z" fill="#BAE6FD"/>
</g>
<defs>
<filter id="filter0_d_2_14" x="8.84705" y="11.44" width="30.32" height="31.76" filterUnits="userSpaceOnUse" color-interpolation-filters="sRGB">
<feFlood flood-opacity="0" result="BackgroundImageFix"/>
<feColorMatrix in="SourceAlpha" type="matrix" values="0 0 0 0 0 0 0 0 0 0 0 0 0 0 0 0 0 0 127 0" result="hardAlpha"/>
<feOffset dy="2"/>
<feGaussianBlur stdDeviation="1.5"/>
<feComposite in2="hardAlpha" operator="out"/>
<feColorMatrix type="matrix" values="0 0 0 0 0.0470588 0 0 0 0 0.290196 0 0 0 0 0.431373 0 0 0 0.9 0"/>
<feBlend mode="normal" in2="BackgroundImageFix" result="effect1_dropShadow_2_14"/>
<feBlend mode="normal" in="SourceGraphic" in2="effect1_dropShadow_2_14" result="shape"/>
</filter>
</defs>
</svg>
