<svg width="48" height="48" viewBox="0 0 20 20" fill="none" xmlns="http://www.w3.org/2000/svg">
<path d="M11.6051 15.8579C11.5251 15.751 11.4337 15.6741 11.3316 15.6269C11.2296 15.5797 11.122 15.5562 11.0085 15.5562C10.8923 15.5562 10.7816 15.5779 10.6761 15.6221C10.5706 15.6662 10.4765 15.7407 10.3933 15.8459C10.3102 15.951 10.2447 16.0869 10.1978 16.2538C10.1506 16.4204 10.1254 16.6245 10.1223 16.8666C10.1254 17.1024 10.1499 17.3035 10.1954 17.47C10.2409 17.6366 10.3037 17.7724 10.384 17.8779C10.4644 17.9835 10.5554 18.06 10.6575 18.109C10.7596 18.1579 10.8671 18.1821 10.9806 18.1821C11.0968 18.1821 11.2075 18.1593 11.313 18.1138C11.4185 18.0683 11.5127 17.9935 11.5958 17.89C11.6789 17.7866 11.7444 17.6504 11.7913 17.4821C11.8382 17.3138 11.8637 17.109 11.8668 16.8669C11.8637 16.631 11.8392 16.4307 11.7937 16.2659C11.7482 16.101 11.6854 15.9648 11.6051 15.8579Z" fill="#FFD600"/>
<path d="M17.7586 13.4483V4.82C17.7586 4.55586 17.7268 4.36034 17.5689 4.20207L13.5562 0.189655C13.4358 0.0693103 13.2689 0 13.0982 0H3.09064C2.68168 0 2.24133 0.315862 2.24133 1.00897V13.4483H17.7586ZM10.1724 11.3793C10.1724 11.5697 10.0182 11.7241 9.82754 11.7241C9.63685 11.7241 9.48271 11.5697 9.48271 11.3793V10.3448C9.48271 10.1545 9.63685 10 9.82754 10C10.0182 10 10.1724 10.1545 10.1724 10.3448V11.3793ZM12.931 1.16931C12.931 1.01138 13.1217 0.932414 13.2334 1.04414L16.7144 4.52517C16.8262 4.6369 16.7472 4.82759 16.5893 4.82759H12.931V1.16931ZM12.5862 8.27586V6.89655C12.5862 6.70655 12.4317 6.55172 12.2413 6.55172C12.0506 6.55172 11.8965 6.39724 11.8965 6.2069C11.8965 6.01655 12.0506 5.86207 12.2413 5.86207C12.8117 5.86207 13.2758 6.32621 13.2758 6.89655V8.27586C13.2758 8.65621 13.5851 8.96552 13.9655 8.96552C14.1562 8.96552 14.3103 9.12 14.3103 9.31034C14.3103 9.50069 14.1562 9.65517 13.9655 9.65517C13.5851 9.65517 13.2758 9.96448 13.2758 10.3448V11.7241C13.2758 12.2945 12.8117 12.7586 12.2413 12.7586C12.0506 12.7586 11.8965 12.6041 11.8965 12.4138C11.8965 12.2234 12.0506 12.069 12.2413 12.069C12.4317 12.069 12.5862 11.9141 12.5862 11.7241V10.3448C12.5862 9.93103 12.7731 9.56345 13.0627 9.31034C12.7731 9.05724 12.5862 8.68966 12.5862 8.27586ZM9.82754 7.58621C10.1131 7.58621 10.3448 7.81793 10.3448 8.10345C10.3448 8.38897 10.1131 8.62069 9.82754 8.62069C9.54202 8.62069 9.3103 8.38897 9.3103 8.10345C9.3103 7.81793 9.54202 7.58621 9.82754 7.58621ZM5.68961 8.96552C6.06995 8.96552 6.37926 8.65621 6.37926 8.27586V6.89655C6.37926 6.32621 6.8434 5.86207 7.41375 5.86207C7.60444 5.86207 7.75857 6.01655 7.75857 6.2069C7.75857 6.39724 7.60444 6.55172 7.41375 6.55172C7.2234 6.55172 7.06892 6.70655 7.06892 6.89655V8.27586C7.06892 8.68966 6.88202 9.05724 6.59237 9.31034C6.88202 9.56345 7.06892 9.93103 7.06892 10.3448V11.7241C7.06892 11.9141 7.2234 12.069 7.41375 12.069C7.60444 12.069 7.75857 12.2234 7.75857 12.4138C7.75857 12.6041 7.60444 12.7586 7.41375 12.7586C6.8434 12.7586 6.37926 12.2945 6.37926 11.7241V10.3448C6.37926 9.96448 6.06995 9.65517 5.68961 9.65517C5.49892 9.65517 5.34478 9.50069 5.34478 9.31034C5.34478 9.12 5.49892 8.96552 5.68961 8.96552Z" fill="#FFD600"/>
<path d="M2.24133 14.1379V19.3104C2.24133 19.6583 2.66202 20 3.09064 20H16.9093C17.3379 20 17.7586 19.6583 17.7586 19.3104V14.1379H2.24133ZM6.21409 17.7814C6.21409 17.9448 6.18409 18.0824 6.12444 18.1938C6.06478 18.3052 5.98478 18.3948 5.88409 18.4624C5.7834 18.53 5.66788 18.5773 5.53754 18.6038C5.40719 18.6304 5.27271 18.6438 5.13444 18.6438C5.06547 18.6438 4.98409 18.6366 4.89168 18.6224C4.79926 18.6083 4.70306 18.5866 4.60409 18.5566C4.50513 18.5266 4.40995 18.4928 4.31892 18.4552C4.22788 18.4176 4.15099 18.3752 4.08788 18.3279L4.32823 17.9462C4.35961 17.9679 4.40444 17.991 4.46271 18.0145C4.52099 18.0379 4.58478 18.06 4.65375 18.0804C4.72271 18.1007 4.79513 18.1186 4.87064 18.1345C4.94616 18.1504 5.01685 18.1579 5.08271 18.1579C5.24926 18.1579 5.38202 18.1255 5.48099 18.0614C5.57995 17.9972 5.63237 17.8876 5.63892 17.7338V15.0748H6.21409V17.7814ZM8.95099 18.0338C8.89926 18.1517 8.82616 18.2555 8.73168 18.3448C8.63719 18.4341 8.52133 18.5059 8.38271 18.5593C8.24409 18.6128 8.08754 18.6393 7.91133 18.6393C7.83582 18.6393 7.75823 18.6352 7.67788 18.6276C7.59754 18.62 7.51685 18.6062 7.43513 18.5876C7.3534 18.5686 7.27547 18.5428 7.20168 18.5097C7.12788 18.4766 7.06444 18.4366 7.01064 18.3893L7.10961 17.9838C7.15375 18.009 7.20926 18.0335 7.27685 18.0569C7.34444 18.0804 7.41409 18.1024 7.4865 18.1228C7.55892 18.1431 7.63099 18.1597 7.7034 18.1724C7.77581 18.1852 7.84306 18.1914 7.90616 18.1914C8.09788 18.1914 8.24478 18.1466 8.34685 18.0569C8.44892 17.9673 8.49995 17.8345 8.49995 17.6586C8.49995 17.5517 8.46409 17.4607 8.39168 17.3852C8.31926 17.3097 8.22892 17.2414 8.12064 17.18C8.01237 17.1186 7.89513 17.0576 7.76926 16.9962C7.6434 16.9348 7.52582 16.8624 7.41582 16.7793C7.30582 16.6962 7.21478 16.5979 7.14237 16.4848C7.06995 16.3717 7.03409 16.2304 7.03409 16.0607C7.03409 15.9069 7.06237 15.77 7.11892 15.6507C7.17547 15.5314 7.25168 15.4297 7.34754 15.3466C7.4434 15.2635 7.55513 15.1997 7.68237 15.1555C7.80961 15.1114 7.94409 15.0897 8.08547 15.0897C8.22995 15.0897 8.37616 15.1031 8.52375 15.1297C8.67133 15.1562 8.79064 15.1997 8.88202 15.2593C8.86306 15.3 8.84133 15.3448 8.81616 15.3938C8.79099 15.4428 8.76719 15.4879 8.74547 15.5304C8.72375 15.5728 8.70478 15.6083 8.68892 15.6366C8.67306 15.6648 8.66375 15.6807 8.66064 15.6838C8.64168 15.6745 8.62064 15.6621 8.59685 15.6462C8.57306 15.6304 8.53961 15.6148 8.49547 15.599C8.45133 15.5831 8.3934 15.5724 8.32099 15.5659C8.24857 15.5593 8.15581 15.561 8.04271 15.5707C7.97961 15.5772 7.9203 15.5948 7.8634 15.6248C7.8065 15.6548 7.7565 15.6914 7.71237 15.7355C7.66823 15.7797 7.63375 15.829 7.60857 15.8841C7.5834 15.9393 7.57099 15.9921 7.57099 16.0421C7.57099 16.1676 7.60685 16.269 7.67926 16.3462C7.75168 16.4235 7.84133 16.4907 7.94788 16.549C8.05444 16.6073 8.17099 16.6638 8.29685 16.7186C8.42271 16.7735 8.53961 16.8407 8.64823 16.919C8.75685 16.9972 8.84685 17.0959 8.91926 17.2135C8.99168 17.331 9.02754 17.4828 9.02754 17.6683C9.02892 17.7941 9.00271 17.9159 8.95099 18.0338ZM12.3313 17.64C12.2575 17.8631 12.1551 18.0486 12.0248 18.1962C11.8944 18.3438 11.742 18.4555 11.5675 18.531C11.3931 18.6066 11.202 18.6441 10.9948 18.6441C10.7875 18.6441 10.5965 18.6066 10.422 18.531C10.2475 18.4555 10.0951 18.3441 9.96478 18.1962C9.83444 18.0483 9.73202 17.8631 9.65823 17.64C9.58444 17.4169 9.54754 17.159 9.54754 16.8669C9.54754 16.5748 9.58444 16.3176 9.65823 16.0962C9.73202 15.8748 9.83444 15.69 9.96478 15.5424C10.0951 15.3948 10.2475 15.2824 10.422 15.2052C10.5965 15.1279 10.7875 15.0897 10.9948 15.0897C11.202 15.0897 11.3931 15.1279 11.5675 15.2052C11.742 15.2824 11.8944 15.3945 12.0248 15.5424C12.1551 15.6904 12.2575 15.8748 12.3313 16.0962C12.4051 16.3176 12.442 16.5748 12.442 16.8669C12.442 17.159 12.4051 17.4169 12.3313 17.64ZM15.7517 18.6207H15.1765L13.8141 16.2259V18.6207H13.2389V15.1462H13.8141L15.1765 17.541V15.1462H15.7517V18.6207Z" fill="#FFD600"/>
</svg>
